<?xml version="1.0" encoding="UTF-8"?><svg id="Lager_1" xmlns="http://www.w3.org/2000/svg" viewBox="0 0 185.63 90.12"><defs><style>.cls-1{stroke-width:.64px;}.cls-1,.cls-2,.cls-3,.cls-4,.cls-5,.cls-6{stroke:#475133;stroke-miterlimit:10;}.cls-1,.cls-4,.cls-7{fill:#475133;}.cls-2{stroke-width:.75px;}.cls-2,.cls-3,.cls-5,.cls-6{fill:none;}.cls-3{stroke-width:.88px;}.cls-4,.cls-6{stroke-width:.81px;}.cls-5{stroke-width:.94px;}.cls-7{stroke-width:0px;}</style></defs><path class="cls-5" d="M25.06,68.71c4.24-2,7.66-4.04,10.23-5.72,2.84-1.85,5.68-3.72,8.93-6.82,1.48-1.41,3.41-3.27,5.42-6.12,2.43-3.46,3.82-6.72,4.62-9.03"/><path class="cls-5" d="M58.2,39.05c0,1.09-.89,1.83-1.97,1.97-1.15.16-1.97,0-1.97,0v-1.97c0-1.09.88-1.97,1.97-1.97s1.97.88,1.97,1.97Z"/><circle class="cls-3" cx="52.17" cy="40.72" r="2.15"/><circle class="cls-3" cx="55.26" cy="44.45" r="2.15"/><circle class="cls-3" cx="49.41" cy="46.28" r="2.15"/><circle class="cls-3" cx="52.02" cy="50.94" r="2.15"/><circle class="cls-3" cx="60.92" cy="59.79" r="2.15"/><circle class="cls-2" cx="65.39" cy="55.86" r="1.86"/><circle class="cls-1" cx="67.88" cy="59.79" r="1.57"/><path class="cls-5" d="M36.51,62.2c2.17-1.14,9.45-4.11,13.6-4.77,3.13-.5,5.57-.36,7.69-.25,4.47.24,7.88,1.07,10.15,1.64,1.35.34,3.34.84,5.89,1.8.45.17,2.4.91,4.87,2.13.55.27.93.47,1.59.82,3.8,1.98,3.85,2.21,5.73,3.11.91.43,3.02,1.4,5.81,1.72,1.19.14,1.76.05,1.96-.25.55-.77-.65-1.79-1.56-2.29-1.13-.63-2.18-1.04-4.86-1.66-2.16-.5-3.46-.7-5.21-1.12-1.16-.28-1.98-.31-4.71-.91"/><path class="cls-5" d="M69.87,59.32c4.47-.43,5.05-.42,6.3-.6,1.62-.23,2.9-.4,5.52-.45,1.62-.03,2.61.04,2.88.61.22.48-.12,1.04-.63,1.38-.43.29-1.5.39-2.76.23-1.03-.14-3.36-.31-5.31-.7-1.67-.33-3.15-.48-5.72-.48"/><path class="cls-5" d="M73.4,60.43c1.1,1.95,2.09,4.52,2.64,5.65.48.99,1.29,2.67,2.83,4.47.9,1.05,1.53,1.53,1.99,1.37.4-.14.17-1.63.15-1.85-.18-1.78-.73-2.68-1.03-3.19-1.15-1.91-1.8-2.81-2.7-3.76-2.53-2.68-4.39-2.79-6.24-3.45"/><path class="cls-5" d="M39.66,60.77c3.4-1.92,13.59-4.83,19.92-6.71,1.52-.45,5.82-1.67,14.24-2.71,5.79-.71,14.34-1.72,25.77-1.06,11.39.66,17.88,1.03,25.65,4.59,2.37,1.08,2.27,1.28,10.24,5.29,9.4,4.74,12.35,5.88,15.53,6.71,3.53.91,6.67,1.25,9.08,1.37.47.02.67-.6.27-.86-3.15-2.07-5.9-3.68-8.06-4.86-5.53-3.04-8.4-4.05-9.3-4.35-3.44-1.17-5.87-1.52-6.82-1.65-1.4-.18-3.74-.26-5.63-.28-.33,0-.65,0-.95,0-.69,0-1.31.05-2.46-.42"/><path class="cls-5" d="M103.54,50.53c.41.26,4.21,2.55,8.29,6.01,1.88,1.59,4.07,3.63,4.07,3.63.84.78,1.53,1.44,2.16,2.05,2.59,2.51,3.67,3.67,6.11,6.11,3.3,3.3,4.93,4.79,7.42,6.11,2.69,1.43,3.31,1.04,3.49.87.53-.51,0-1.87-.22-2.4-1.26-3.12-3.99-4.86-6.55-6.44-3.65-2.26-10.34-5.3-12.9-6.75"/><path class="cls-5" d="M103.24,50.67c2.39,3.83,2.77,3.85,5.89,6.67,1.18,1.06,2.75,2.38,4.69,4.7.28.34.82,1,.75,1.84-.06.68-.53,1.38-1.09,1.59-1.3.49-3.18-1.62-4.12-2.68-1.69-1.92-4.17-5.39-6.3-12.25"/><path class="cls-5" d="M64.01,52.95s3.71-2.9,4.65-3.73c2.59-2.32,3.89-3.47,4.56-4,1.77-1.38,1.97-1.12,5.81-3.37,3.37-1.97,2.43-1.71,6.2-3.98.57-.35,3.59-2.16,5.89-4.9.3-.36.8-.98.61-1.3-.15-.26-.78-.35-3.29.46-2.7.87-4.56,1.46-6.89,2.98-2.63,1.72-4.24,3.57-5.43,4.97-1.57,1.84-1.42,2.09-3.06,4.21-3.28,4.23-9.09,8.61-9.06,8.65Z"/><path class="cls-5" d="M65.9,51.48c.34-2.97.82-6.94,1.23-9.09.26-1.4.62-3.17,1.96-4.83.39-.49,1.48-1.85,2.37-1.58.89.27,1.06,2.01,1.08,2.21.11,1.23-.75,2.8-2.02,5.36-.68,1.37-1.49,2.73-2.43,4.05-.41.57-1.47,2.49-2.18,3.88"/><path class="cls-5" d="M82.37,50.47c5.26-2.5,12.49-5.51,16.01-6.6,4.93-1.53,7.12-2.14,9.04-2.5.91-.17,4.1-.74,6.28-.65,1.43.06,2.78.35,2.98.39.85.19,1.52.4,2,.56,3.62,1.22,6.53,2.85,6.53,2.85,2.85,1.59,3.63,2.51,5.88,2.91.48.08,2.23.4,2.55-.24.07-.14.18-.54-.71-1.6-.92-1.1-2.23-2.09-5.28-3.27-1.81-.7-3.66-1.4-6.29-1.72-1.69-.21-6.58.05-7.66.12"/><path class="cls-5" d="M112.53,40.73c3.62-1.11,6.27-3.13,7.05-3.6.85-.52,5.13-4.1,6.5-5.44.61-.6,2.76-2.24,3.22-2.59.73-.56,1.19-.82,1.42-.66.39.25-.03,1.51-.09,1.71-.68,2.04-2.35,3.26-4.17,4.55-1.8,1.28-3.29,1.96-3.79,2.18-1.52.67-3.25.79-4.3,1.02"/><circle class="cls-5" cx="98.59" cy="41.68" r="2.03"/><circle class="cls-6" cx="104.81" cy="39.93" r="1.76"/><circle class="cls-6" cx="102.57" cy="44.74" r="1.95"/><circle class="cls-4" cx="94.46" cy="45.5" r="1.95"/><path class="cls-7" d="M41.51,80.53h5.81v1.4h-4.21v2.47h3.97v1.35h-3.97v3.79h-1.6v-9Z"/><path class="cls-7" d="M48.19,83.43h1.46v1.02h.03c.17-.36.41-.64.71-.87.31-.22.66-.33,1.07-.33.06,0,.12,0,.19,0s.13.02.18.03v1.4c-.1-.03-.19-.04-.26-.05-.07,0-.14-.01-.21-.01-.35,0-.63.06-.84.19-.21.13-.38.28-.5.46-.12.18-.2.36-.24.55-.04.19-.06.34-.06.44v3.27h-1.53v-6.1Z"/><path class="cls-7" d="M56.44,88.76h-.04c-.15.27-.4.49-.74.67-.34.17-.72.26-1.16.26-.25,0-.5-.03-.77-.1-.27-.06-.51-.17-.74-.32-.23-.15-.41-.34-.56-.58-.15-.24-.22-.54-.22-.9,0-.46.13-.82.39-1.09.26-.27.59-.48,1-.62.41-.14.86-.24,1.35-.29.5-.05.98-.07,1.46-.07v-.15c0-.38-.14-.66-.41-.85-.28-.18-.6-.27-.99-.27-.32,0-.63.07-.93.2-.3.14-.54.3-.74.5l-.79-.93c.35-.32.75-.56,1.2-.73.45-.16.91-.24,1.38-.24.54,0,.99.08,1.34.23.35.15.63.35.83.6.2.25.35.52.43.83.08.3.12.61.12.92v3.71h-1.42v-.78ZM56.41,86.75h-.34c-.25,0-.5.01-.78.03-.27.02-.52.07-.75.14s-.42.17-.57.31-.23.31-.23.54c0,.14.03.27.1.36s.15.18.25.24.22.1.34.13.25.04.38.04c.53,0,.92-.14,1.19-.42.27-.28.41-.66.41-1.14v-.22ZM56.49,81.21c0,.38-.13.69-.38.93-.25.24-.57.36-.95.36s-.7-.12-.95-.36c-.25-.24-.38-.55-.38-.92,0-.19.03-.36.1-.52s.16-.3.28-.41c.12-.11.26-.2.42-.27s.34-.1.53-.1c.38,0,.7.12.95.36.25.24.38.55.38.93ZM55.91,81.21c0-.21-.07-.39-.22-.52-.14-.14-.32-.2-.53-.2s-.4.07-.54.21c-.14.14-.21.32-.21.53s.07.37.22.51.32.2.53.2.39-.07.53-.2c.14-.14.22-.31.22-.52Z"/><path class="cls-7" d="M59.64,83.43h1.45v.98h.03c.14-.31.37-.57.71-.81.34-.23.73-.35,1.19-.35.4,0,.74.07,1.02.21.28.14.52.32.7.55s.32.49.4.79c.08.3.13.6.13.92v3.81h-1.53v-3.38c0-.18-.01-.36-.04-.56-.03-.19-.08-.37-.17-.53-.08-.16-.2-.29-.35-.39s-.35-.15-.59-.15-.46.05-.64.15-.32.22-.44.37c-.11.15-.2.33-.26.53s-.09.4-.09.6v3.36h-1.53v-6.1Z"/><path class="cls-7" d="M74.57,86.62c0,.33-.04.68-.11,1.04-.07.36-.21.7-.4,1.02-.19.31-.47.57-.83.78-.36.2-.81.31-1.37.31-.73,0-1.31-.18-1.75-.55-.44-.36-.74-.84-.9-1.44l1.48-.42c.08.3.22.53.42.71.2.17.45.26.73.26.23,0,.42-.04.57-.13s.26-.21.34-.36.14-.34.17-.56c.03-.22.05-.45.05-.71v-6.04h1.6v6.09Z"/><path class="cls-7" d="M76.05,86.46c0-.48.09-.92.26-1.32.17-.39.41-.73.71-1.01.3-.28.65-.5,1.06-.65.41-.15.84-.23,1.3-.23s.89.08,1.3.23c.41.15.76.37,1.06.65.3.28.53.62.71,1.01.17.39.26.83.26,1.32s-.09.92-.26,1.32-.41.74-.71,1.02c-.3.28-.65.51-1.06.67s-.84.24-1.3.24-.89-.08-1.3-.24-.76-.38-1.06-.67c-.3-.28-.53-.62-.71-1.02-.17-.4-.26-.84-.26-1.32ZM77.6,86.46c0,.24.04.48.11.71.07.24.18.45.32.64s.33.34.55.46c.22.12.48.18.79.18s.57-.06.79-.18c.22-.12.4-.27.55-.46.14-.19.25-.4.32-.64.07-.24.11-.47.11-.71s-.04-.47-.11-.71c-.07-.23-.18-.44-.32-.63-.14-.19-.33-.34-.55-.45-.22-.12-.48-.17-.79-.17s-.57.06-.79.17c-.22.11-.4.27-.55.45s-.25.4-.32.63c-.07.23-.11.47-.11.71Z"/><path class="cls-7" d="M84.16,83.43h1.46v1.02h.03c.17-.36.41-.64.71-.87.31-.22.66-.33,1.07-.33.06,0,.12,0,.19,0s.13.02.18.03v1.4c-.1-.03-.19-.04-.26-.05-.07,0-.14-.01-.21-.01-.35,0-.63.06-.84.19-.21.13-.38.28-.5.46-.12.18-.2.36-.24.55-.04.19-.06.34-.06.44v3.27h-1.53v-6.1Z"/><path class="cls-7" d="M94.77,89.54h-1.45v-.92h-.03c-.21.36-.51.63-.88.81s-.78.28-1.21.28c-.47,0-.88-.09-1.25-.26-.37-.17-.68-.41-.94-.7s-.46-.64-.6-1.03c-.14-.39-.21-.81-.21-1.27s.07-.87.22-1.26.35-.73.61-1.02.58-.51.94-.68.76-.25,1.2-.25c.28,0,.53.03.75.1s.41.14.58.24.31.19.43.31c.12.11.22.22.29.32h.04v-4.29h1.53v9.61ZM89.75,86.46c0,.24.04.48.11.71.07.24.18.45.32.64s.33.34.55.46c.22.12.48.18.78.18.28,0,.53-.06.75-.17.22-.12.41-.27.57-.45.16-.19.27-.4.36-.63.08-.23.12-.47.12-.71s-.04-.47-.12-.71c-.08-.24-.2-.45-.36-.64-.16-.19-.35-.34-.57-.46-.22-.12-.47-.18-.75-.18-.3,0-.56.06-.78.17-.22.11-.4.27-.55.45s-.25.4-.32.63c-.07.23-.11.47-.11.71Z"/><path class="cls-7" d="M98.93,84.65v-1.22h1.07v-1.77h1.5v1.77h1.53v1.22h-1.53v2.84c0,.27.05.5.15.67s.32.27.65.27c.1,0,.21-.01.33-.03s.22-.05.32-.1l.05,1.19c-.14.05-.3.09-.48.12-.19.03-.36.04-.53.04-.41,0-.74-.06-.99-.17-.25-.11-.46-.27-.6-.47-.15-.2-.25-.43-.31-.69s-.08-.54-.08-.83v-2.85h-1.07Z"/><path class="cls-7" d="M103.94,81.36c0-.25.09-.46.27-.64.18-.18.41-.27.69-.27s.52.09.71.26c.19.17.29.39.29.65s-.1.48-.29.65c-.19.17-.43.26-.71.26s-.51-.09-.69-.27c-.18-.18-.27-.4-.27-.64ZM104.15,83.43h1.53v6.1h-1.53v-6.1Z"/><path class="cls-7" d="M107.56,79.92h1.53v9.61h-1.53v-9.61Z"/><path class="cls-7" d="M110.97,79.92h1.53v9.61h-1.53v-9.61Z"/><path class="cls-7" d="M117.61,80.53h3.51c.34,0,.67.04,1,.12s.62.21.88.39c.26.18.47.42.63.71s.24.64.24,1.04c0,.51-.14.93-.43,1.26-.29.33-.67.57-1.13.71v.03c.57.08,1.03.3,1.4.66.36.36.55.85.55,1.46,0,.49-.1.91-.29,1.24-.19.34-.45.6-.77.81-.32.2-.68.35-1.09.44s-.83.13-1.25.13h-3.24v-9ZM119.21,84.2h1.42c.53,0,.94-.11,1.22-.32.28-.21.42-.51.42-.9s-.14-.7-.43-.87c-.29-.17-.74-.25-1.35-.25h-1.28v2.34ZM119.21,88.19h1.44c.2,0,.42-.01.66-.04.24-.03.46-.09.65-.19.2-.09.36-.23.5-.41.13-.18.2-.42.2-.71,0-.48-.16-.81-.48-.99-.32-.19-.81-.28-1.46-.28h-1.5v2.62Z"/><path class="cls-7" d="M125.4,86.46c0-.48.09-.92.26-1.32.17-.39.41-.73.71-1.01.3-.28.65-.5,1.06-.65.41-.15.84-.23,1.3-.23s.89.08,1.3.23c.41.15.76.37,1.06.65.3.28.53.62.71,1.01.17.39.26.83.26,1.32s-.09.92-.26,1.32-.41.74-.71,1.02c-.3.28-.65.51-1.06.67s-.84.24-1.3.24-.89-.08-1.3-.24-.76-.38-1.06-.67c-.3-.28-.53-.62-.71-1.02-.17-.4-.26-.84-.26-1.32ZM126.96,86.46c0,.24.04.48.11.71.07.24.18.45.32.64s.33.34.55.46c.22.12.48.18.79.18s.57-.06.79-.18c.22-.12.4-.27.55-.46.14-.19.25-.4.32-.64.07-.24.11-.47.11-.71s-.04-.47-.11-.71c-.07-.23-.18-.44-.32-.63-.14-.19-.33-.34-.55-.45-.22-.12-.48-.17-.79-.17s-.57.06-.79.17c-.22.11-.4.27-.55.45s-.25.4-.32.63c-.07.23-.11.47-.11.71Z"/><path class="cls-7" d="M133.52,83.43h1.46v1.02h.03c.17-.36.41-.64.71-.87.31-.22.66-.33,1.07-.33.06,0,.12,0,.19,0s.13.02.18.03v1.4c-.1-.03-.19-.04-.26-.05-.07,0-.14-.01-.21-.01-.35,0-.63.06-.84.19-.21.13-.38.28-.5.46-.12.18-.2.36-.24.55-.04.19-.06.34-.06.44v3.27h-1.53v-6.1Z"/><path class="cls-7" d="M144.12,89.54h-1.45v-.92h-.03c-.21.36-.51.63-.88.81s-.78.28-1.21.28c-.47,0-.88-.09-1.25-.26-.37-.17-.68-.41-.94-.7s-.46-.64-.6-1.03c-.14-.39-.21-.81-.21-1.27s.07-.87.22-1.26.35-.73.61-1.02.58-.51.94-.68.76-.25,1.2-.25c.28,0,.53.03.75.1s.41.14.58.24.31.19.43.31c.12.11.22.22.29.32h.04v-4.29h1.53v9.61ZM139.1,86.46c0,.24.04.48.11.71.07.24.18.45.32.64s.33.34.55.46c.22.12.48.18.78.18.28,0,.53-.06.75-.17.22-.12.41-.27.57-.45.16-.19.27-.4.36-.63.08-.23.12-.47.12-.71s-.04-.47-.12-.71c-.08-.24-.2-.45-.36-.64-.16-.19-.35-.34-.57-.46-.22-.12-.47-.18-.75-.18-.3,0-.56.06-.78.17-.22.11-.4.27-.55.45s-.25.4-.32.63c-.07.23-.11.47-.11.71Z"/><path class="cls-7" d="M17.32,23.55c-.41.14-.71.28-.9.42-.19.14-.3.32-.33.55-.03.23.01.57.12,1.01.32,1.32.48,1.99.8,3.31-1.03.25-2.11.66-3.23,1.22-.81.41-1.42.7-1.83.89-.41.18-.91.35-1.49.51-1.55.41-2.96.42-4.27.02-1.3-.4-2.39-1.07-3.27-2.02-.88-.95-1.49-2.01-1.83-3.18-.39-1.34-.41-2.67-.06-3.97.36-1.3,1.03-2.44,2.01-3.4.99-.96,2.18-1.63,3.57-2,1.69-.45,3.38-.3,5.04.46.09-.34.13-.78.1-1.33.43-.11.64-.16,1.07-.27.5,1.84.75,2.75,1.24,4.59-.4.1-.6.15-1,.25-.33-.66-.77-1.23-1.34-1.71-.57-.48-1.22-.8-1.94-.98-.72-.18-1.46-.16-2.23.04-.56.15-1.08.38-1.56.71-.49.33-.9.78-1.24,1.36-.34.58-.54,1.29-.6,2.15-.06.85.07,1.85.38,2.99.27.98.64,1.89,1.11,2.73.46.84,1.11,1.5,1.94,1.97.83.47,1.83.55,3.02.23.93-.25,1.6-.57,2.01-.98.41-.41.63-.84.67-1.29.04-.45,0-.93-.13-1.45-.12-.48-.25-.83-.38-1.03-.13-.2-.35-.32-.65-.35-.3-.03-.74.02-1.31.17-.1-.38-.15-.57-.25-.95,2.61-.68,3.91-1,6.53-1.62.09.38.14.57.23.96Z"/><path class="cls-7" d="M34.87,25.7c-1.55.29-2.33.43-3.88.74-.17-.13-.39-.32-.66-.57-.27-.25-.57-.55-.9-.9-.33-.35-.6-.63-.82-.86-.53-.56-.79-.84-1.32-1.39-.59-.62-1.03-1.04-1.32-1.25-.28-.21-.58-.33-.89-.34-.31-.01-.81.06-1.52.21-.22.05-.33.07-.55.12.32,1.48.49,2.22.81,3.7.09.39.2.7.33.91.14.22.38.36.72.41.34.06.82.02,1.42-.11l.2.96c-2.9.61-4.34.94-7.23,1.62-.09-.38-.14-.58-.23-.96.88-.21,1.42-.46,1.61-.77.19-.31.22-.77.08-1.38-.82-3.57-1.23-5.36-2.04-8.94-.14-.61-.36-1.01-.68-1.2-.31-.2-.93-.19-1.86.03-.09-.39-.14-.59-.23-.98,1.38-.37,2.07-.55,3.46-.91.26-.07.57-.15.91-.24.34-.08.66-.16.96-.22.23-.05.61-.13,1.15-.23.75-.14,1.46-.25,2.13-.32.67-.07,1.2-.09,1.6-.08.58.02,1.16.13,1.72.34.56.21,1.05.54,1.46.98.41.44.68,1,.81,1.66.09.48.07.96-.06,1.45-.13.49-.4.96-.81,1.4-.41.44-.98.85-1.72,1.21.59.19,1.12.48,1.57.85.46.37,1.2,1.07,2.21,2.11.59.59,1.06,1.03,1.42,1.33.36.29.67.48.94.55.27.08.6.1.98.06.07.39.11.58.18.97ZM26.75,16.42c-.23-1.13-.75-1.81-1.55-2.03s-1.8-.21-2.97.05c-.16.04-.29.06-.38.09-.09.02-.2.05-.31.07.5,2.28.75,3.42,1.25,5.7.27-.06.41-.09.69-.15,1.1-.24,1.98-.6,2.66-1.1.68-.5.89-1.37.63-2.63Z"/><path class="cls-7" d="M50.18,15.93c.17,1.31.01,2.58-.47,3.81-.48,1.23-1.3,2.27-2.43,3.14-1.14.87-2.54,1.43-4.22,1.69-1.37.22-2.61.2-3.73-.06-1.12-.26-2.07-.69-2.87-1.31-.79-.61-1.43-1.32-1.91-2.14-.48-.81-.8-1.66-.97-2.53-.23-1.27-.15-2.53.28-3.77.42-1.24,1.21-2.33,2.36-3.24,1.15-.91,2.62-1.52,4.4-1.8,1.62-.26,3.04-.21,4.25.12,1.21.34,2.18.85,2.92,1.52.74.68,1.29,1.42,1.68,2.22.38.8.62,1.58.72,2.34ZM46.61,16.37c-.12-.81-.3-1.56-.54-2.26-.25-.7-.6-1.31-1.04-1.84-.45-.53-1.01-.92-1.7-1.17-.68-.25-1.49-.3-2.42-.15-1.28.2-2.23.67-2.85,1.39-.62.72-.97,1.56-1.07,2.51-.1.95-.05,1.96.13,3.03.1.59.25,1.2.44,1.83s.5,1.25.91,1.87c.42.62,1,1.11,1.73,1.46.74.35,1.63.44,2.67.28,1.04-.16,1.85-.53,2.43-1.11.58-.57.97-1.23,1.17-1.96.2-.73.29-1.42.28-2.06-.01-.64-.06-1.24-.14-1.81ZM39.43,7.05c.05.32-.03.62-.24.9-.21.28-.49.45-.83.5-.34.06-.65,0-.95-.19-.29-.18-.47-.45-.53-.79-.05-.32.02-.61.23-.89.21-.27.49-.44.85-.5.35-.06.67.01.96.21.28.2.45.45.5.76ZM43.62,6.4c.05.33-.03.63-.25.9-.21.27-.5.43-.85.49-.33.05-.64-.02-.93-.2-.29-.19-.46-.45-.52-.8-.05-.32.03-.61.25-.88.21-.27.49-.43.84-.49.36-.06.69.02.97.22.28.2.44.46.49.77Z"/><path class="cls-7" d="M67.55,7.79c-.73.06-1.24.17-1.55.33-.3.16-.48.39-.53.66-.05.28-.05.72,0,1.33.39,4.59.58,6.88.97,11.47-.4.03-.6.05-.99.09-4.22-4.16-6.4-6.21-10.88-10.23.37,3.18.56,4.77.93,7.95.07.6.16,1.04.27,1.3.11.26.33.45.65.56.33.11.84.12,1.53.05.04.39.07.59.11.98-2.17.24-3.26.37-5.43.65-.05-.39-.07-.59-.12-.98.65-.08,1.11-.21,1.38-.39.27-.18.43-.41.46-.69.04-.28.02-.72-.06-1.33-.36-2.94-.54-4.41-.89-7.36-.07-.6-.14-1.04-.21-1.33-.07-.29-.18-.54-.34-.75-.15-.21-.38-.36-.69-.47-.3-.1-.71-.15-1.23-.13-.05-.39-.07-.59-.12-.98,1.78-.23,2.66-.33,4.44-.54,3.92,3.48,5.83,5.26,9.56,8.85-.23-2.64-.35-3.96-.58-6.6-.05-.54-.12-.95-.23-1.23-.1-.28-.32-.49-.64-.61-.33-.13-.83-.16-1.5-.1-.04-.39-.06-.59-.09-.98,2.28-.22,3.42-.31,5.71-.49.03.39.05.59.08.98Z"/><path class="cls-7" d="M83.59,20.47c-2.77.09-4.15.15-6.91.29-.02-.39-.03-.59-.05-.98.59-.03,1.01-.09,1.27-.19.26-.1.39-.3.37-.6-.01-.21-.06-.43-.16-.65-.31-.67-.47-1.01-.78-1.68-1.93.1-2.89.15-4.82.28-.12.39-.18.58-.3.96-.17.54-.25.93-.23,1.16.03.43.22.69.56.78.34.09.74.12,1.19.1l.06.98c-2.02.12-3.03.19-5.05.35-.03-.39-.05-.59-.08-.98.4-.03.74-.13,1.01-.3.27-.17.52-.47.75-.91.23-.44.46-1.04.71-1.83,1.41-4.49,2.14-6.74,3.66-11.22.43-.02.64-.04,1.07-.06,2.11,4.42,3.13,6.64,5.11,11.09.36.79.62,1.32.78,1.59.16.28.38.49.65.63.27.14.65.21,1.14.19.01.39.02.59.03.99ZM76.88,15.64c-.93-1.98-1.39-2.97-2.35-4.94-.68,2.07-1.01,3.1-1.66,5.18,1.6-.1,2.41-.15,4.01-.23Z"/><path class="cls-7" d="M106.55,14.83c-.43.03-.75.08-.97.16-.22.08-.37.23-.46.45-.09.21-.14.55-.16,1.01-.05,1.36-.07,2.04-.12,3.4-1.05-.04-2.19.07-3.41.31-.88.17-1.55.29-1.99.36-.44.07-.96.1-1.56.09-1.59-.02-2.94-.39-4.08-1.13-1.14-.74-2-1.68-2.58-2.83-.58-1.15-.88-2.34-.9-3.56-.01-1.4.32-2.68,1-3.84.69-1.16,1.63-2.07,2.82-2.73,1.2-.66,2.51-.98,3.94-.96,1.74.02,3.31.62,4.7,1.79.18-.3.33-.72.45-1.25.44.01.66.02,1.1.03-.01,1.9-.02,2.85-.04,4.76-.41-.01-.61-.02-1.02-.03-.14-.73-.41-1.39-.83-2-.42-.61-.95-1.1-1.59-1.46-.64-.36-1.36-.55-2.14-.56-.57,0-1.13.08-1.68.26-.55.18-1.07.51-1.54.97-.48.47-.86,1.1-1.15,1.91s-.43,1.8-.43,2.99c0,1.01.11,1.99.33,2.92.22.94.66,1.74,1.33,2.41.66.67,1.6,1.02,2.82,1.03.96.01,1.68-.12,2.18-.41.5-.29.83-.64.99-1.07.16-.42.25-.9.26-1.43.01-.5-.02-.86-.09-1.09-.07-.23-.25-.4-.53-.52-.28-.11-.71-.18-1.3-.19,0-.39.01-.59.02-.98,2.67.05,4,.09,6.67.19-.02.39-.02.59-.04.98Z"/><path class="cls-7" d="M121.45,21.49c-2.76-.24-4.14-.34-6.9-.51.03-.39.04-.59.06-.98.59.04,1.01.03,1.29-.04.27-.06.42-.25.44-.55.01-.21-.01-.43-.09-.66-.23-.7-.35-1.05-.58-1.76-1.93-.13-2.89-.19-4.82-.29-.16.37-.25.55-.41.92-.23.52-.35.89-.36,1.13-.02.43.13.71.46.84.33.13.72.21,1.17.23-.02.39-.03.59-.05.98-2.02-.11-3.03-.16-5.05-.24.02-.39.02-.59.04-.98.41.02.75-.04,1.04-.18.29-.14.57-.41.85-.82.28-.41.58-.98.92-1.73,1.92-4.3,2.91-6.44,4.94-10.71.43.03.64.04,1.07.07,1.58,4.63,2.34,6.95,3.79,11.6.27.82.46,1.38.59,1.67.13.29.32.53.58.7.26.17.62.28,1.11.32-.03.39-.05.59-.08.98ZM115.35,15.9c-.69-2.08-1.04-3.11-1.75-5.18-.91,1.98-1.36,2.97-2.25,4.95,1.6.09,2.41.13,4.01.24ZM117.31,3.5c-.04.56-.29,1.03-.75,1.4-.46.37-.98.54-1.57.5-.57-.04-1.06-.26-1.47-.68-.41-.42-.6-.91-.57-1.49.02-.37.14-.71.36-1.02.22-.31.5-.54.84-.69s.71-.22,1.09-.2c.61.04,1.12.27,1.52.69.4.42.58.92.54,1.49ZM116.48,3.44c.02-.34-.08-.64-.32-.91-.24-.26-.56-.41-.95-.43-.36-.02-.68.08-.96.31-.28.23-.43.51-.45.86-.02.36.09.66.34.92.25.25.55.39.92.42.38.02.71-.08.98-.31.28-.23.43-.51.45-.86Z"/><path class="cls-7" d="M137.98,23.32c-1.56-.21-2.34-.32-3.9-.51-.12-.17-.27-.42-.45-.75-.18-.32-.37-.7-.57-1.13-.2-.43-.37-.79-.51-1.07-.32-.69-.49-1.04-.81-1.73-.37-.78-.65-1.31-.85-1.6-.2-.29-.45-.49-.73-.6-.29-.11-.79-.2-1.5-.28-.22-.02-.34-.04-.56-.06-.16,1.51-.24,2.26-.39,3.77-.04.4-.03.72.03.97.06.25.25.46.55.62.31.16.77.28,1.38.34-.04.39-.07.59-.11.98-2.93-.32-4.4-.47-7.33-.73.03-.39.05-.59.09-.98.89.08,1.48,0,1.76-.23.28-.23.45-.66.51-1.29.34-3.65.52-5.48.86-9.13.06-.62-.03-1.07-.26-1.35-.23-.28-.82-.47-1.77-.55.04-.4.05-.6.09-1,1.42.08,2.13.13,3.55.22.27.01.58.03.93.06.35.03.68.06.98.09.23.02.62.07,1.16.14.76.1,1.46.22,2.11.36.65.14,1.17.29,1.54.43.54.2,1.05.49,1.52.86.47.37.83.84,1.08,1.39.25.55.33,1.16.25,1.83-.06.48-.23.94-.51,1.36-.28.43-.68.78-1.2,1.08-.53.29-1.19.5-2,.61.5.37.91.8,1.23,1.3.32.5.8,1.4,1.44,2.7.37.75.68,1.31.93,1.7.25.39.49.66.72.82.23.16.54.28.91.37-.05.39-.08.59-.13.98ZM133.19,11.97c.14-1.15-.14-1.95-.83-2.42-.69-.46-1.64-.76-2.83-.88-.16-.02-.29-.03-.39-.04-.09,0-.2-.02-.32-.03-.24,2.32-.36,3.48-.6,5.81.28.03.42.04.7.07,1.11.12,2.06.05,2.86-.21.79-.26,1.27-1.03,1.42-2.3Z"/><path class="cls-7" d="M155.2,18.9c-.19,1.03-.55,1.93-1.07,2.69-.52.76-1.11,1.37-1.78,1.82-.67.45-1.35.76-2.04.93-1.46.35-3.17.36-5.14.05-2.66-.42-3.98-.62-6.65-.99.05-.39.08-.59.14-.98.62.09,1.09.09,1.43.02.33-.07.57-.22.7-.44.13-.22.23-.54.29-.97.53-3.63.79-5.44,1.32-9.07.09-.62.02-1.08-.21-1.37-.23-.29-.83-.51-1.79-.64.06-.4.08-.6.14-1,1.31.16,1.97.24,3.28.41.11.02.57.08,1.37.19.8.11,1.27.17,1.39.19,1.25.2,2.3.43,3.15.7.85.27,1.61.62,2.28,1.02.61.37,1.16.83,1.64,1.38s.85,1.16,1.12,1.8c.27.65.45,1.33.53,2.05.08.72.05,1.45-.09,2.19ZM151.67,18.19c.26-1.48.19-2.78-.23-3.88-.42-1.11-1.11-1.94-2.07-2.5-.42-.24-.87-.43-1.37-.56-.49-.13-1.21-.27-2.15-.41-.63,4.03-.94,6.05-1.57,10.08-.09.58-.13,1-.11,1.28.02.27.15.5.41.68.26.18.68.32,1.27.41,1.74.28,3.07-.1,4-1.18.93-1.07,1.54-2.38,1.81-3.93Z"/><path class="cls-7" d="M168.32,28.96c-2.71-.64-4.07-.94-6.79-1.52.08-.39.12-.58.21-.96.58.12,1,.17,1.29.15.28-.02.45-.18.52-.48.05-.21.05-.43.01-.67-.13-.73-.19-1.09-.32-1.82-1.9-.41-2.85-.61-4.75-.99-.22.34-.32.51-.54.85-.3.48-.48.83-.52,1.06-.08.42.03.72.34.9.31.18.68.31,1.13.4-.08.39-.12.58-.2.97-1.99-.41-2.99-.6-4.99-.97.07-.39.11-.58.18-.97.4.08.75.07,1.06-.03s.63-.32.96-.68c.33-.36.72-.89,1.16-1.58,2.53-3.97,3.83-5.95,6.47-9.88.42.09.63.13,1.06.22.9,4.82,1.31,7.22,2.08,12.04.14.85.26,1.43.34,1.74.09.31.24.57.47.78.23.21.58.37,1.06.48-.09.38-.14.58-.23.96ZM163.06,22.54c-.38-2.15-.58-3.23-.99-5.39-1.19,1.82-1.79,2.73-2.96,4.56,1.58.32,2.37.48,3.95.82Z"/><path class="cls-7" d="M184.51,33.22c-1.52-.44-2.29-.66-3.82-1.08-.1-.19-.21-.46-.34-.8-.13-.35-.26-.75-.4-1.2-.14-.46-.26-.83-.35-1.13-.22-.73-.33-1.1-.56-1.84-.25-.82-.46-1.39-.62-1.71-.16-.32-.37-.55-.64-.7-.27-.15-.76-.31-1.45-.49-.22-.06-.33-.08-.55-.14-.37,1.47-.56,2.2-.94,3.67-.1.39-.14.71-.11.97.03.26.18.49.46.69.28.21.72.39,1.32.54-.1.38-.15.57-.25.95-2.87-.75-4.31-1.11-7.2-1.8.09-.38.14-.58.23-.96.88.21,1.47.22,1.79.03.31-.19.54-.59.69-1.2.87-3.56,1.31-5.34,2.18-8.9.15-.6.13-1.06-.07-1.38-.19-.31-.75-.59-1.68-.81.09-.39.14-.59.23-.98,1.4.29,2.1.44,3.5.74.27.05.58.12.92.2.34.08.66.16.96.23.23.06.61.16,1.13.31.74.21,1.42.44,2.05.67.63.23,1.12.46,1.47.65.51.28.98.64,1.39,1.08.41.44.7.95.87,1.53.17.58.16,1.2-.02,1.85-.13.47-.37.89-.7,1.27-.34.38-.79.68-1.35.89-.57.21-1.26.32-2.08.31.44.44.79.93,1.03,1.46.24.54.59,1.5,1.04,2.88.26.79.48,1.4.68,1.82.19.42.39.73.6.92.21.19.49.36.86.5-.11.38-.16.57-.27.95ZM181.38,21.27c.3-1.12.14-1.96-.48-2.51-.62-.56-1.52-.99-2.69-1.29-.16-.04-.29-.07-.38-.09-.09-.02-.2-.05-.31-.07-.58,2.26-.87,3.39-1.44,5.66.27.07.41.1.68.17,1.09.28,2.05.35,2.88.21.83-.14,1.41-.83,1.75-2.07Z"/></svg>